<!-- <svg width="270" height="34" viewBox="0 0 270 34" fill="none" xmlns="http://www.w3.org/2000/svg">
<path d="M13.168 33.836C11.1147 33.836 9.31067 33.484 7.756 32.78C6.23067 32.076 4.95467 31.1373 3.928 29.964C2.93067 28.7613 2.168 27.4267 1.64 25.96C1.14133 24.4933 0.892 22.9973 0.892 21.472V20.636C0.892 19.052 1.14133 17.5267 1.64 16.06C2.168 14.564 2.93067 13.244 3.928 12.1C4.95467 10.9267 6.216 10.0027 7.712 9.328C9.208 8.624 10.9387 8.272 12.904 8.272C15.4853 8.272 17.6413 8.844 19.372 9.988C21.132 11.1027 22.452 12.584 23.332 14.432C24.212 16.2507 24.652 18.216 24.652 20.328V22.528H3.488V18.788H20.824L18.932 20.636C18.932 19.1107 18.712 17.8053 18.272 16.72C17.832 15.6347 17.1573 14.7987 16.248 14.212C15.368 13.6253 14.2533 13.332 12.904 13.332C11.5547 13.332 10.4107 13.64 9.472 14.256C8.53333 14.872 7.81467 15.7667 7.316 16.94C6.84667 18.084 6.612 19.4627 6.612 21.076C6.612 22.572 6.84667 23.9067 7.316 25.08C7.78533 26.224 8.504 27.1333 9.472 27.808C10.44 28.4533 11.672 28.776 13.168 28.776C14.664 28.776 15.8813 28.4827 16.82 27.896C17.7587 27.28 18.36 26.532 18.624 25.652H24.256C23.904 27.2947 23.2293 28.732 22.232 29.964C21.2347 31.196 19.9587 32.1493 18.404 32.824C16.8787 33.4987 15.1333 33.836 13.168 33.836ZM40.1452 33.308C37.9452 33.308 36.1265 33.0293 34.6892 32.472C33.2812 31.8853 32.2252 30.9173 31.5212 29.568C30.8172 28.1893 30.4652 26.3413 30.4652 24.024L30.5092 2.376H36.2292L36.1852 24.42C36.1852 25.5933 36.4932 26.5027 37.1092 27.148C37.7545 27.764 38.6638 28.072 39.8372 28.072H43.5772V33.308H40.1452ZM26.6812 13.596V9.108H43.5772V13.596H26.6812ZM48.7104 33V0.879999H54.8264V19.624H53.7704C53.7704 17.2187 54.0784 15.18 54.6944 13.508C55.3104 11.836 56.2197 10.56 57.4224 9.68C58.6544 8.8 60.209 8.36 62.0864 8.36H62.3504C65.0784 8.36 67.1464 9.29867 68.5544 11.176C69.9624 13.0533 70.6664 15.7813 70.6664 19.36V33H64.5504V18.788C64.5504 17.2627 64.1104 16.06 63.2304 15.18C62.3797 14.3 61.2504 13.86 59.8424 13.86C58.3464 13.86 57.129 14.3587 56.1904 15.356C55.281 16.324 54.8264 17.6 54.8264 19.184V33H48.7104ZM91.7176 33V25.916H90.7056V18.04C90.7056 16.6613 90.3683 15.6347 89.6936 14.96C89.019 14.2853 87.9776 13.948 86.5696 13.948C85.8363 13.948 84.9563 13.9627 83.9296 13.992C82.903 14.0213 81.8616 14.0653 80.8056 14.124C79.779 14.1533 78.855 14.1973 78.0336 14.256V9.064C78.7083 9.00533 79.471 8.94667 80.3216 8.888C81.1723 8.82933 82.0376 8.8 82.9176 8.8C83.827 8.77067 84.6776 8.756 85.4696 8.756C87.9336 8.756 89.9723 9.07867 91.5856 9.724C93.2283 10.3693 94.4603 11.3813 95.2816 12.76C96.1323 14.1387 96.5576 15.9427 96.5576 18.172V33H91.7176ZM84.0176 33.616C82.287 33.616 80.7616 33.308 79.4416 32.692C78.151 32.076 77.139 31.196 76.4056 30.052C75.7016 28.908 75.3496 27.5293 75.3496 25.916C75.3496 24.156 75.775 22.7187 76.6256 21.604C77.5056 20.4893 78.723 19.6533 80.2776 19.096C81.8616 18.5387 83.7096 18.26 85.8216 18.26H91.3656V21.912H85.7336C84.3256 21.912 83.2403 22.264 82.4776 22.968C81.7443 23.6427 81.3776 24.5227 81.3776 25.608C81.3776 26.6933 81.7443 27.5733 82.4776 28.248C83.2403 28.9227 84.3256 29.26 85.7336 29.26C86.5843 29.26 87.3616 29.1133 88.0656 28.82C88.799 28.4973 89.4003 27.9693 89.8696 27.236C90.3683 26.4733 90.647 25.4467 90.7056 24.156L92.2016 25.872C92.055 27.544 91.6443 28.952 90.9696 30.096C90.3243 31.24 89.415 32.12 88.2416 32.736C87.0976 33.3227 85.6896 33.616 84.0176 33.616ZM103.109 33V9.108H107.949V19.36H107.509C107.509 16.9253 107.831 14.9013 108.477 13.288C109.122 11.6453 110.075 10.4133 111.337 9.592C112.627 8.77067 114.226 8.36 116.133 8.36H116.397C119.242 8.36 121.398 9.284 122.865 11.132C124.331 12.9507 125.065 15.6787 125.065 19.316V33H118.949V18.788C118.949 17.3213 118.523 16.1333 117.673 15.224C116.851 14.3147 115.707 13.86 114.241 13.86C112.745 13.86 111.527 14.3293 110.589 15.268C109.679 16.1773 109.225 17.4093 109.225 18.964V33H103.109ZM149.1 33.66C146.225 33.66 144.011 33 142.456 31.68C140.931 30.36 140.153 28.6733 140.124 26.62H142.412C142.412 27.94 142.925 29.0987 143.952 30.096C145.008 31.064 146.724 31.548 149.1 31.548C151.417 31.548 153.119 31.064 154.204 30.096C155.289 29.0987 155.832 27.9253 155.832 26.576C155.832 25.256 155.333 24.244 154.336 23.54C153.368 22.836 152.048 22.396 150.376 22.22L147.648 21.912C145.624 21.6773 144.011 21.0467 142.808 20.02C141.635 18.9933 141.048 17.6 141.048 15.84C141.048 14.5787 141.371 13.4493 142.016 12.452C142.661 11.4547 143.585 10.6627 144.788 10.076C146.02 9.48933 147.457 9.196 149.1 9.196C151.505 9.196 153.441 9.78267 154.908 10.956C156.404 12.1293 157.167 13.728 157.196 15.752H154.908C154.937 14.4907 154.439 13.4347 153.412 12.584C152.415 11.7333 150.977 11.308 149.1 11.308C147.135 11.308 145.668 11.7627 144.7 12.672C143.761 13.5813 143.292 14.652 143.292 15.884C143.292 16.9107 143.659 17.7907 144.392 18.524C145.155 19.2573 146.299 19.712 147.824 19.888L150.552 20.196C152.723 20.4013 154.512 21.032 155.92 22.088C157.357 23.144 158.076 24.6547 158.076 26.62C158.076 27.94 157.709 29.128 156.976 30.184C156.272 31.24 155.26 32.0907 153.94 32.736C152.62 33.352 151.007 33.66 149.1 33.66ZM165.223 33V9.9H167.071V19.36H166.543C166.543 17.3653 166.837 15.62 167.423 14.124C168.039 12.5987 168.949 11.4107 170.151 10.56C171.354 9.70933 172.879 9.284 174.727 9.284H174.859C176.678 9.284 178.189 9.70933 179.391 10.56C180.594 11.3813 181.474 12.5547 182.031 14.08C182.618 15.576 182.911 17.336 182.911 19.36H182.031C182.031 17.3653 182.325 15.62 182.911 14.124C183.527 12.5987 184.437 11.4107 185.639 10.56C186.871 9.70933 188.411 9.284 190.259 9.284H190.391C192.21 9.284 193.721 9.70933 194.923 10.56C196.155 11.3813 197.065 12.5547 197.651 14.08C198.238 15.576 198.531 17.336 198.531 19.36V33H196.199V18.832C196.199 16.632 195.657 14.8573 194.571 13.508C193.515 12.1293 191.946 11.44 189.863 11.44C187.751 11.44 186.079 12.144 184.847 13.552C183.645 14.96 183.043 16.7933 183.043 19.052V33H180.711V18.832C180.711 16.632 180.169 14.8573 179.083 13.508C178.027 12.1293 176.458 11.44 174.375 11.44C172.263 11.44 170.591 12.144 169.359 13.552C168.157 14.96 167.555 16.7933 167.555 19.052V33H165.223ZM208.522 33V9.9H210.898V33H208.522ZM204.694 11.924V9.9H210.898V11.924H204.694ZM208.742 5.06C208.126 5.06 207.656 4.89866 207.334 4.576C207.011 4.224 206.85 3.784 206.85 3.256C206.85 2.69866 207.011 2.244 207.334 1.892C207.656 1.54 208.14 1.364 208.786 1.364C209.402 1.364 209.871 1.54 210.194 1.892C210.516 2.244 210.678 2.69866 210.678 3.256C210.678 3.784 210.516 4.224 210.194 4.576C209.9 4.89866 209.416 5.06 208.742 5.06ZM227.709 33.22C226.271 33.22 225.01 33.0147 223.925 32.604C222.839 32.164 222.003 31.4307 221.417 30.404C220.83 29.3773 220.537 27.9987 220.537 26.268V2.376H222.825V26.664C222.825 28.072 223.206 29.172 223.969 29.964C224.761 30.7267 225.846 31.108 227.225 31.108H231.537V33.22H227.709ZM216.137 11.792V9.9H231.537V11.792H216.137ZM238.356 33V0.879999H240.688V18.04L239.852 19.536C239.852 17.512 240.16 15.7373 240.776 14.212C241.422 12.6573 242.39 11.4547 243.68 10.604C244.971 9.724 246.599 9.284 248.564 9.284H248.652C251.527 9.284 253.698 10.1933 255.164 12.012C256.631 13.8013 257.364 16.2507 257.364 19.36V33H254.988V18.832C254.988 16.6027 254.387 14.8133 253.184 13.464C251.982 12.1147 250.28 11.44 248.08 11.44C245.822 11.44 244.018 12.1587 242.668 13.596C241.348 15.004 240.688 16.852 240.688 19.14V33H238.356Z" fill="white"/>
<path d="M265.19 33V28.644H269.326V33H265.19Z" fill="#F13024"/>
</svg> -->
<!-- <svg width="460" height="36" viewBox="0 0 460 36" fill="none" xmlns="http://www.w3.org/2000/svg">
<path d="M2.39062 35C1.29688 35 0.75 34.4141 0.75 33.2422V3.14844C0.75 1.97656 1.29688 1.39062 2.39062 1.39062H22.5C23.6719 1.39062 24.2578 1.89844 24.2578 2.91406V5.67969C24.2578 6.69531 23.6719 7.20312 22.5 7.20312H7.59375V14.6562H21.2578C22.4297 14.6562 23.0156 15.1641 23.0156 16.1797V18.9453C23.0156 19.9609 22.4297 20.4688 21.2578 20.4688H7.59375V29.1875H23.25C24.4219 29.1875 25.0078 29.6953 25.0078 30.7109V33.4766C25.0078 34.4922 24.4219 35 23.25 35H2.39062ZM32.3906 35C31.2969 35 30.75 34.4141 30.75 33.2422V3.14844C30.75 1.97656 31.2969 1.39062 32.3906 1.39062H40.5703C47.7578 1.39062 52.6172 2.84375 55.1484 5.75C57.6953 8.65625 58.9688 12.7891 58.9688 18.1484C58.9688 23.5078 57.6953 27.6562 55.1484 30.5938C52.6172 33.5312 47.7578 35 40.5703 35H32.3906ZM37.5938 29.1875H40.125C44.9688 29.1875 48.1016 28.2891 49.5234 26.4922C50.9453 24.6797 51.6562 21.8984 51.6562 18.1484C51.6562 14.3984 50.9453 11.6328 49.5234 9.85156C48.1016 8.05469 44.9688 7.15625 40.125 7.15625H37.5938V29.1875ZM64.7344 21.0078V2.67969C64.7344 1.82031 65.2812 1.39062 66.375 1.39062H69.9375C71.0312 1.39062 71.5781 1.82031 71.5781 2.67969V20.7734C71.5781 24.9922 72.1953 27.6328 73.4297 28.6953C74.6797 29.7422 76.0859 30.2656 77.6484 30.2656C79.2109 30.2656 80.6094 29.7422 81.8438 28.6953C83.0938 27.6328 83.7188 24.9922 83.7188 20.7734V2.67969C83.7188 1.82031 84.2656 1.39062 85.3594 1.39062H88.9219C90.0156 1.39062 90.5625 1.82031 90.5625 2.67969V21.0078C90.5625 26.4766 89.4062 30.3125 87.0938 32.5156C84.7812 34.7031 81.6328 35.7969 77.6484 35.7969C73.6641 35.7969 70.5156 34.7031 68.2031 32.5156C65.8906 30.3125 64.7344 26.4766 64.7344 21.0078ZM97.0078 35C95.8828 35 95.5156 34.4844 95.9062 33.4531L107.391 3.28906C107.875 2.02344 108.609 1.39062 109.594 1.39062H112.875C113.859 1.39062 114.594 2.02344 115.078 3.28906L126.562 33.4531C126.953 34.4844 126.586 35 125.461 35H121.734C120.703 35 119.984 34.4609 119.578 33.3828L117.188 27.0781H105.281L102.891 33.3828C102.484 34.4609 101.766 35 100.734 35H97.0078ZM107.461 21.2656H115.008L112.125 13.8125C111.781 12.9375 111.57 12.3047 111.492 11.9141C111.43 11.5078 111.359 10.9141 111.281 10.1328H111.188C111.109 10.9141 111.031 11.5078 110.953 11.9141C110.891 12.3047 110.688 12.9375 110.344 13.8125L107.461 21.2656ZM132.375 35C131.281 35 130.734 34.4141 130.734 33.2422V3.14844C130.734 1.97656 131.281 1.39062 132.375 1.39062H143.227C148.055 1.39062 151.578 2.14062 153.797 3.64062C156.016 5.125 157.125 7.54688 157.125 10.9062C157.125 13.4062 156.227 15.3984 154.43 16.8828C152.633 18.3672 150.352 19.3516 147.586 19.8359V19.8828C149.086 20.4453 150.219 21.2266 150.984 22.2266C151.75 23.2266 152.375 24.1016 152.859 24.8516L158.016 32.9844C158.875 34.3281 158.578 35 157.125 35H153.047C152.188 35 151.484 34.5391 150.938 33.6172L146.203 25.7188C145.688 24.875 144.742 23.9531 143.367 22.9531C142.008 21.9375 140.656 21.4297 139.312 21.4297H137.578V33.2422C137.578 34.4141 137.031 35 135.938 35H132.375ZM137.578 15.6172H141.773C144.898 15.6172 147.117 15.2656 148.43 14.5625C149.758 13.8438 150.422 12.7109 150.422 11.1641C150.422 9.47656 149.781 8.38281 148.5 7.88281C147.234 7.36719 145.367 7.10938 142.898 7.10938H137.578V15.6172ZM165.844 35C164.75 35 164.203 34.4141 164.203 33.2422V3.14844C164.203 1.97656 164.75 1.39062 165.844 1.39062H174.023C181.211 1.39062 186.07 2.84375 188.602 5.75C191.148 8.65625 192.422 12.7891 192.422 18.1484C192.422 23.5078 191.148 27.6562 188.602 30.5938C186.07 33.5312 181.211 35 174.023 35H165.844ZM171.047 29.1875H173.578C178.422 29.1875 181.555 28.2891 182.977 26.4922C184.398 24.6797 185.109 21.8984 185.109 18.1484C185.109 14.3984 184.398 11.6328 182.977 9.85156C181.555 8.05469 178.422 7.15625 173.578 7.15625H171.047V29.1875ZM215.578 35C214.797 35 214.406 34.5703 214.406 33.7109V2.67969C214.406 1.82031 214.797 1.39062 215.578 1.39062H220.57C221.164 1.39062 221.609 1.85938 221.906 2.79688L228.609 23.8203C229.297 25.9766 229.703 27.2812 229.828 27.7344C229.953 28.1719 230.133 28.9844 230.367 30.1719H230.508C230.742 28.9844 230.922 28.1719 231.047 27.7344C231.172 27.2812 231.578 25.9766 232.266 23.8203L238.969 2.79688C239.266 1.85938 239.711 1.39062 240.305 1.39062H245.297C246.078 1.39062 246.469 1.82031 246.469 2.67969V33.7109C246.469 34.5703 246.078 35 245.297 35H243.141C242.359 35 241.969 34.5703 241.969 33.7109V9.125C241.969 8.5 241.984 7.875 242.016 7.25H241.922L233.273 33.5703C232.961 34.5234 232.445 35 231.727 35H229.148C228.43 35 227.914 34.5234 227.602 33.5703L218.953 7.25H218.859C218.891 7.875 218.906 8.5 218.906 9.125V33.7109C218.906 34.5703 218.516 35 217.734 35H215.578ZM254.438 22.1797V2.67969C254.438 1.82031 254.828 1.39062 255.609 1.39062H257.766C258.547 1.39062 258.938 1.82031 258.938 2.67969V21.4766C258.938 25.8516 259.555 28.7109 260.789 30.0547C262.039 31.3828 264.07 32.0469 266.883 32.0469C269.695 32.0469 271.719 31.3828 272.953 30.0547C274.203 28.7109 274.828 25.8516 274.828 21.4766V2.67969C274.828 1.82031 275.219 1.39062 276 1.39062H278.156C278.938 1.39062 279.328 1.82031 279.328 2.67969V22.1797C279.328 27.1328 278.188 30.625 275.906 32.6562C273.641 34.6875 270.633 35.7031 266.883 35.7031C263.133 35.7031 260.117 34.6875 257.836 32.6562C255.57 30.625 254.438 27.1328 254.438 22.1797ZM288.469 35C287.688 35 287.297 34.5703 287.297 33.7109V2.67969C287.297 1.82031 287.688 1.39062 288.469 1.39062H297.117C303.742 1.39062 308.344 2.85938 310.922 5.79688C313.516 8.71875 314.812 12.8359 314.812 18.1484C314.812 23.4609 313.516 27.6016 310.922 30.5703C308.344 33.5234 303.742 35 297.117 35H288.469ZM291.797 31.1562H296.906C302.062 31.1562 305.531 30.0625 307.312 27.875C309.109 25.6875 310.008 22.4453 310.008 18.1484C310.008 13.8516 309.109 10.6172 307.312 8.44531C305.531 6.27344 302.062 5.1875 296.906 5.1875H291.797V31.1562ZM322.125 35C321.344 35 320.953 34.5703 320.953 33.7109V2.67969C320.953 1.82031 321.344 1.39062 322.125 1.39062H333.445C337.961 1.39062 341.227 2.23438 343.242 3.92188C345.273 5.60938 346.289 7.83594 346.289 10.6016C346.289 13.0391 345.469 15.0859 343.828 16.7422C342.203 18.3984 339.883 19.3516 336.867 19.6016V19.6484C338.461 20.8359 339.516 21.7422 340.031 22.3672C340.547 22.9766 341.125 23.8047 341.766 24.8516L347.062 33.4531C347.703 34.4844 347.562 35 346.641 35H343.969C343.234 35 342.688 34.6953 342.328 34.0859L337.453 25.7188C336.75 24.5156 335.742 23.3359 334.43 22.1797C333.117 21.0234 331.484 20.4453 329.531 20.4453H325.453V33.7109C325.453 34.5703 325.062 35 324.281 35H322.125ZM325.453 16.6016H332.227C335.273 16.6016 337.617 16.2031 339.258 15.4062C340.898 14.5938 341.719 12.8984 341.719 10.3203C341.719 8.35156 340.969 7.01562 339.469 6.3125C337.969 5.59375 335.93 5.23438 333.352 5.23438H325.453V16.6016ZM354.797 35C354.016 35 353.625 34.5703 353.625 33.7109V2.67969C353.625 1.82031 354.016 1.39062 354.797 1.39062H356.953C357.734 1.39062 358.125 1.82031 358.125 2.67969V33.7109C358.125 34.5703 357.734 35 356.953 35H354.797ZM364.242 5.42188C363.383 5.42188 362.953 5.07031 362.953 4.36719V2.44531C362.953 1.74219 363.383 1.39062 364.242 1.39062H389.039C389.898 1.39062 390.328 1.74219 390.328 2.44531V4.36719C390.328 5.07031 389.898 5.42188 389.039 5.42188H378.891V33.7109C378.891 34.5703 378.5 35 377.719 35H375.562C374.781 35 374.391 34.5703 374.391 33.7109V5.42188H364.242ZM395.062 32.4688C394.234 31.7188 394.016 31.0625 394.406 30.5L395.625 28.7422C396.047 28.1328 396.727 28.1797 397.664 28.8828C398.898 29.8047 400.18 30.5625 401.508 31.1562C402.852 31.75 404.477 32.0469 406.383 32.0469C407.789 32.0469 408.977 31.8359 409.945 31.4141C410.914 30.9922 411.688 30.3906 412.266 29.6094C412.859 28.8125 413.156 27.8516 413.156 26.7266C413.156 25.9141 413.031 25.1641 412.781 24.4766C412.547 23.7734 412.164 23.1875 411.633 22.7188C411.102 22.25 410.547 21.8828 409.969 21.6172C409.016 21.1797 407.586 20.6719 405.68 20.0938C403.789 19.5156 402.133 18.8906 400.711 18.2188C399.305 17.5469 398.18 16.7344 397.336 15.7812C396.508 14.8281 395.953 13.8516 395.672 12.8516C395.406 11.8359 395.273 10.6797 395.273 9.38281C395.273 7.39844 395.852 5.6875 397.008 4.25C398.164 2.8125 399.578 1.85938 401.25 1.39062C402.938 0.921875 404.648 0.6875 406.383 0.6875C408.367 0.6875 410.094 0.945312 411.562 1.46094C413.031 1.97656 414.344 2.64844 415.5 3.47656C416.312 4.05469 416.5 4.66406 416.062 5.30469L414.867 7.01562C414.508 7.53125 413.805 7.42188 412.758 6.6875C411.961 6.125 410.984 5.60156 409.828 5.11719C408.688 4.61719 407.555 4.36719 406.43 4.36719C404.992 4.36719 403.797 4.53906 402.844 4.88281C401.891 5.21094 401.141 5.77344 400.594 6.57031C400.047 7.36719 399.773 8.28906 399.773 9.33594C399.773 9.99219 399.836 10.6016 399.961 11.1641C400.086 11.7109 400.406 12.2734 400.922 12.8516C401.438 13.4297 402.062 13.875 402.797 14.1875C403.781 14.6094 405.305 15.1094 407.367 15.6875C409.445 16.25 411.258 16.9453 412.805 17.7734C414.242 18.5391 415.273 19.3438 415.898 20.1875C416.539 21.0156 417.031 21.9219 417.375 22.9062C417.734 23.875 417.914 24.9688 417.914 26.1875C417.914 28.4062 417.344 30.2578 416.203 31.7422C415.062 33.2266 413.711 34.2578 412.148 34.8359C410.586 35.4141 408.625 35.7031 406.266 35.7031C403.438 35.7031 401.094 35.375 399.234 34.7188C397.375 34.0625 395.984 33.3125 395.062 32.4688ZM425.016 35C424.234 35 423.844 34.5703 423.844 33.7109V2.67969C423.844 1.82031 424.234 1.39062 425.016 1.39062H427.172C427.953 1.39062 428.344 1.82031 428.344 2.67969V16.4609C428.344 17.0859 428.328 17.7109 428.297 18.3359H428.391L444.047 2.30469C444.641 1.69531 445.188 1.39062 445.688 1.39062H448.523C449.82 1.39062 449.961 1.90625 448.945 2.9375L437.039 15.0781L449.578 33.4531C450.266 34.4844 450.125 35 449.156 35H446.297C445.609 35 445.062 34.6953 444.656 34.0859L433.945 18.2656L428.344 23.9609V33.7109C428.344 34.5703 427.953 35 427.172 35H425.016ZM456.141 35C455.359 35 454.969 34.5703 454.969 33.7109V2.67969C454.969 1.82031 455.359 1.39062 456.141 1.39062H458.297C459.078 1.39062 459.469 1.82031 459.469 2.67969V33.7109C459.469 34.5703 459.078 35 458.297 35H456.141Z" fill="white"/>
<path d="M265.19 33V28.644H269.326V33H265.19Z" fill="#F13024"/>
</svg> -->

<svg width="382" height="30" viewBox="0 0 382 30" fill="none" xmlns="http://www.w3.org/2000/svg">
<path d="M1.49219 29C0.580729 29 0.125 28.5117 0.125 27.5352V2.45703C0.125 1.48047 0.580729 0.992188 1.49219 0.992188H18.25C19.2266 0.992188 19.7148 1.41536 19.7148 2.26172V4.56641C19.7148 5.41276 19.2266 5.83594 18.25 5.83594H5.82812V12.0469H17.2148C18.1914 12.0469 18.6797 12.4701 18.6797 13.3164V15.6211C18.6797 16.4674 18.1914 16.8906 17.2148 16.8906H5.82812V24.1562H18.875C19.8516 24.1562 20.3398 24.5794 20.3398 25.4258V27.7305C20.3398 28.5768 19.8516 29 18.875 29H1.49219ZM26.4922 29C25.5807 29 25.125 28.5117 25.125 27.5352V2.45703C25.125 1.48047 25.5807 0.992188 26.4922 0.992188H33.3086C39.2982 0.992188 43.3477 2.20312 45.457 4.625C47.5794 7.04688 48.6406 10.4909 48.6406 14.957C48.6406 19.4232 47.5794 22.8802 45.457 25.3281C43.3477 27.776 39.2982 29 33.3086 29H26.4922ZM30.8281 24.1562H32.9375C36.974 24.1562 39.5846 23.4076 40.7695 21.9102C41.9544 20.3997 42.5469 18.082 42.5469 14.957C42.5469 11.832 41.9544 9.52734 40.7695 8.04297C39.5846 6.54557 36.974 5.79688 32.9375 5.79688H30.8281V24.1562ZM53.4453 17.3398V2.06641C53.4453 1.35026 53.901 0.992188 54.8125 0.992188H57.7812C58.6927 0.992188 59.1484 1.35026 59.1484 2.06641V17.1445C59.1484 20.6602 59.6628 22.8607 60.6914 23.7461C61.7331 24.6185 62.9049 25.0547 64.207 25.0547C65.5091 25.0547 66.6745 24.6185 67.7031 23.7461C68.7448 22.8607 69.2656 20.6602 69.2656 17.1445V2.06641C69.2656 1.35026 69.7214 0.992188 70.6328 0.992188H73.6016C74.513 0.992188 74.9688 1.35026 74.9688 2.06641V17.3398C74.9688 21.8971 74.0052 25.0938 72.0781 26.9297C70.151 28.7526 67.5273 29.6641 64.207 29.6641C60.8867 29.6641 58.263 28.7526 56.3359 26.9297C54.4089 25.0938 53.4453 21.8971 53.4453 17.3398ZM80.3398 29C79.4023 29 79.0964 28.5703 79.4219 27.7109L88.9922 2.57422C89.3958 1.51953 90.0078 0.992188 90.8281 0.992188H93.5625C94.3828 0.992188 94.9948 1.51953 95.3984 2.57422L104.969 27.7109C105.294 28.5703 104.988 29 104.051 29H100.945C100.086 29 99.487 28.5508 99.1484 27.6523L97.1562 22.3984H87.2344L85.2422 27.6523C84.9036 28.5508 84.3047 29 83.4453 29H80.3398ZM89.0508 17.5547H95.3398L92.9375 11.3438C92.651 10.6146 92.4753 10.0872 92.4102 9.76172C92.3581 9.42318 92.2995 8.92839 92.2344 8.27734H92.1562C92.0911 8.92839 92.026 9.42318 91.9609 9.76172C91.9089 10.0872 91.7396 10.6146 91.4531 11.3438L89.0508 17.5547ZM109.812 29C108.901 29 108.445 28.5117 108.445 27.5352V2.45703C108.445 1.48047 108.901 0.992188 109.812 0.992188H118.855C122.879 0.992188 125.815 1.61719 127.664 2.86719C129.513 4.10417 130.438 6.1224 130.438 8.92188C130.438 11.0052 129.689 12.6654 128.191 13.9023C126.694 15.1393 124.793 15.9596 122.488 16.3633V16.4023C123.738 16.8711 124.682 17.5221 125.32 18.3555C125.958 19.1888 126.479 19.918 126.883 20.543L131.18 27.3203C131.896 28.4401 131.648 29 130.438 29H127.039C126.323 29 125.737 28.6159 125.281 27.8477L121.336 21.2656C120.906 20.5625 120.118 19.7943 118.973 18.9609C117.84 18.1146 116.714 17.6914 115.594 17.6914H114.148V27.5352C114.148 28.5117 113.693 29 112.781 29H109.812ZM114.148 12.8477H117.645C120.249 12.8477 122.098 12.5547 123.191 11.9688C124.298 11.3698 124.852 10.4258 124.852 9.13672C124.852 7.73047 124.318 6.81901 123.25 6.40234C122.195 5.97266 120.639 5.75781 118.582 5.75781H114.148V12.8477ZM137.703 29C136.792 29 136.336 28.5117 136.336 27.5352V2.45703C136.336 1.48047 136.792 0.992188 137.703 0.992188H144.52C150.509 0.992188 154.559 2.20312 156.668 4.625C158.79 7.04688 159.852 10.4909 159.852 14.957C159.852 19.4232 158.79 22.8802 156.668 25.3281C154.559 27.776 150.509 29 144.52 29H137.703ZM142.039 24.1562H144.148C148.185 24.1562 150.796 23.4076 151.98 21.9102C153.165 20.3997 153.758 18.082 153.758 14.957C153.758 11.832 153.165 9.52734 151.98 8.04297C150.796 6.54557 148.185 5.79688 144.148 5.79688H142.039V24.1562ZM179.5 29C178.849 29 178.523 28.6419 178.523 27.9258V2.06641C178.523 1.35026 178.849 0.992188 179.5 0.992188H195.418C196.134 0.992188 196.492 1.28516 196.492 1.87109V3.31641C196.492 3.90234 196.134 4.19531 195.418 4.19531H182.273V13.4531H193.738C194.454 13.4531 194.812 13.7461 194.812 14.332V15.7773C194.812 16.3633 194.454 16.6562 193.738 16.6562H182.273V27.9258C182.273 28.6419 181.948 29 181.297 29H179.5ZM201.297 18.3164V2.06641C201.297 1.35026 201.622 0.992188 202.273 0.992188H204.07C204.721 0.992188 205.047 1.35026 205.047 2.06641V17.7305C205.047 21.3763 205.561 23.7591 206.59 24.8789C207.632 25.9857 209.324 26.5391 211.668 26.5391C214.012 26.5391 215.698 25.9857 216.727 24.8789C217.768 23.7591 218.289 21.3763 218.289 17.7305V2.06641C218.289 1.35026 218.615 0.992188 219.266 0.992188H221.062C221.714 0.992188 222.039 1.35026 222.039 2.06641V18.3164C222.039 22.444 221.089 25.3542 219.188 27.0469C217.299 28.7396 214.793 29.5859 211.668 29.5859C208.543 29.5859 206.03 28.7396 204.129 27.0469C202.241 25.3542 201.297 22.444 201.297 18.3164ZM229.656 29C229.005 29 228.68 28.6419 228.68 27.9258V2.06641C228.68 1.35026 229.005 0.992188 229.656 0.992188H231.453C232.104 0.992188 232.43 1.35026 232.43 2.06641V25.7969H245.379C246.095 25.7969 246.453 26.0898 246.453 26.6758V28.1211C246.453 28.707 246.095 29 245.379 29H229.656ZM250.789 26.8906C250.099 26.2656 249.917 25.7188 250.242 25.25L251.258 23.7852C251.609 23.2773 252.176 23.3164 252.957 23.9023C253.986 24.6706 255.053 25.3021 256.16 25.7969C257.28 26.2917 258.634 26.5391 260.223 26.5391C261.395 26.5391 262.384 26.3633 263.191 26.0117C263.999 25.6602 264.643 25.1589 265.125 24.5078C265.62 23.8438 265.867 23.043 265.867 22.1055C265.867 21.4284 265.763 20.8034 265.555 20.2305C265.359 19.6445 265.04 19.1562 264.598 18.7656C264.155 18.375 263.693 18.069 263.211 17.8477C262.417 17.4831 261.225 17.0599 259.637 16.5781C258.061 16.0964 256.681 15.5755 255.496 15.0156C254.324 14.4557 253.387 13.7786 252.684 12.9844C251.993 12.1901 251.531 11.3763 251.297 10.543C251.076 9.69661 250.965 8.73307 250.965 7.65234C250.965 5.9987 251.447 4.57292 252.41 3.375C253.374 2.17708 254.552 1.38281 255.945 0.992188C257.352 0.601562 258.777 0.40625 260.223 0.40625C261.876 0.40625 263.315 0.621094 264.539 1.05078C265.763 1.48047 266.857 2.04036 267.82 2.73047C268.497 3.21224 268.654 3.72005 268.289 4.25391L267.293 5.67969C266.993 6.10938 266.408 6.01823 265.535 5.40625C264.871 4.9375 264.057 4.5013 263.094 4.09766C262.143 3.68099 261.199 3.47266 260.262 3.47266C259.064 3.47266 258.068 3.61589 257.273 3.90234C256.479 4.17578 255.854 4.64453 255.398 5.30859C254.943 5.97266 254.715 6.74089 254.715 7.61328C254.715 8.16016 254.767 8.66797 254.871 9.13672C254.975 9.59245 255.242 10.0612 255.672 10.543C256.102 11.0247 256.622 11.3958 257.234 11.6562C258.055 12.0078 259.324 12.4245 261.043 12.9062C262.775 13.375 264.285 13.9544 265.574 14.6445C266.772 15.2826 267.632 15.9531 268.152 16.6562C268.686 17.3464 269.096 18.1016 269.383 18.9219C269.682 19.7292 269.832 20.6406 269.832 21.6562C269.832 23.5052 269.357 25.0482 268.406 26.2852C267.456 27.5221 266.329 28.3815 265.027 28.8633C263.725 29.3451 262.091 29.5859 260.125 29.5859C257.768 29.5859 255.815 29.3125 254.266 28.7656C252.716 28.2188 251.557 27.5938 250.789 26.8906ZM273.23 4.35156C272.514 4.35156 272.156 4.05859 272.156 3.47266V1.87109C272.156 1.28516 272.514 0.992188 273.23 0.992188H293.895C294.611 0.992188 294.969 1.28516 294.969 1.87109V3.47266C294.969 4.05859 294.611 4.35156 293.895 4.35156H285.438V27.9258C285.438 28.6419 285.112 29 284.461 29H282.664C282.013 29 281.688 28.6419 281.688 27.9258V4.35156H273.23ZM293.992 29C293.315 29 293.139 28.5703 293.465 27.7109L303.191 2.18359C303.491 1.38932 303.921 0.992188 304.48 0.992188H307.215C307.775 0.992188 308.204 1.38932 308.504 2.18359L318.23 27.7109C318.556 28.5703 318.38 29 317.703 29H315.711C315.021 29 314.552 28.681 314.305 28.043L311.863 21.5781H299.832L297.391 28.043C297.143 28.681 296.674 29 295.984 29H293.992ZM301.062 18.375H310.633L307.645 10.5625C307.371 9.83333 307.098 9.02604 306.824 8.14062C306.564 7.25521 306.251 5.9987 305.887 4.37109H305.809C305.444 5.9987 305.125 7.25521 304.852 8.14062C304.591 9.02604 304.324 9.83333 304.051 10.5625L301.062 18.375ZM320.438 14.9961C320.438 10.4388 321.564 6.87109 323.816 4.29297C326.082 1.70182 329.331 0.40625 333.562 0.40625C336.036 0.40625 338.081 0.829427 339.695 1.67578C341.31 2.50911 342.469 3.65495 343.172 5.11328C343.536 5.86849 343.478 6.38932 342.996 6.67578L341.453 7.57422C340.932 7.8737 340.47 7.6263 340.066 6.83203C339.637 6.01172 338.934 5.24349 337.957 4.52734C336.98 3.8112 335.581 3.45312 333.758 3.45312C330.503 3.45312 328.133 4.46875 326.648 6.5C325.177 8.51823 324.441 11.3503 324.441 14.9961C324.441 18.6419 325.177 21.4805 326.648 23.5117C328.133 25.5299 330.503 26.5391 333.758 26.5391C335.633 26.5391 337.13 26.1094 338.25 25.25C339.383 24.3906 340.203 23.4922 340.711 22.5547C341.115 21.7995 341.583 21.5716 342.117 21.8711L343.738 22.7891C344.207 23.0625 344.246 23.5833 343.855 24.3516C343.087 25.849 341.837 27.099 340.105 28.1016C338.374 29.0911 336.193 29.5859 333.562 29.5859C329.331 29.5859 326.082 28.2969 323.816 25.7188C321.564 23.1276 320.438 19.5534 320.438 14.9961ZM350.32 29C349.669 29 349.344 28.6419 349.344 27.9258V2.06641C349.344 1.35026 349.669 0.992188 350.32 0.992188H352.117C352.768 0.992188 353.094 1.35026 353.094 2.06641V13.5508C353.094 14.0716 353.081 14.5924 353.055 15.1133H353.133L366.18 1.75391C366.674 1.24609 367.13 0.992188 367.547 0.992188H369.91C370.991 0.992188 371.108 1.42188 370.262 2.28125L360.34 12.3984L370.789 27.7109C371.362 28.5703 371.245 29 370.438 29H368.055C367.482 29 367.026 28.7461 366.688 28.2383L357.762 15.0547L353.094 19.8008V27.9258C353.094 28.6419 352.768 29 352.117 29H350.32Z" fill="#FEFFFF"/>
<path d="M377.68 29C376.977 29 376.625 28.6484 376.625 27.9453V25.0859C376.625 24.3828 376.977 24.0312 377.68 24.0312H380.305C381.008 24.0312 381.359 24.3828 381.359 25.0859V27.9453C381.359 28.6484 381.008 29 380.305 29H377.68Z" fill="#F60505"/>
</svg>











